
<svg xmlns="http://www.w3.org/2000/svg"
  xmlns:xlink="http://www.w3.org/1999/xlink"
  width="580" height="260">
<pattern id="diagonalHatch" width="10" height="10" patternTransform="rotate(45 0 0)" patternUnits="userSpaceOnUse">
  <line x1="0" y1="0" x2="0" y2="10" style="stroke:black; stroke-width:1" />
</pattern>

  <rect x="0" y="0" style="fill:#FFBBBB" width="580" height="260"/>

    <rect x="20" y="20" style="fill:#FFFFFF" width="120" height="60"/>
  
      <ellipse cx="50.0" cy="50.0" style="fill:#FF2222" rx="10.0" ry="10.0"/>
  
      <ellipse cx="80.0" cy="50.0" style="fill:#FF2222" rx="10.0" ry="10.0"/>
  
      <ellipse cx="110.0" cy="50.0" style="fill:#FF2222" rx="10.0" ry="10.0"/>
  
    <rect x="20" y="100" style="fill:#FFFFFF" width="120" height="60"/>
  
      <ellipse cx="50.0" cy="130.0" style="fill:#FF2222" rx="10.0" ry="10.0"/>
  
      <ellipse cx="80.0" cy="130.0" style="fill:#FF2222" rx="10.0" ry="10.0"/>
  
      <ellipse cx="110.0" cy="130.0" style="fill:#FF2222" rx="10.0" ry="10.0"/>
  
    <rect x="20" y="180" style="fill:#FFFFFF" width="120" height="60"/>
  
      <ellipse cx="50.0" cy="210.0" style="fill:#FF2222" rx="10.0" ry="10.0"/>
  
      <ellipse cx="80.0" cy="210.0" style="fill:#FF2222" rx="10.0" ry="10.0"/>
  
      <ellipse cx="110.0" cy="210.0" style="fill:#FF2222" rx="10.0" ry="10.0"/>
  
    <rect x="160" y="20" style="fill:#FFFFFF" width="120" height="60"/>
  
      <ellipse cx="190.0" cy="50.0" style="fill:#FF2222" rx="10.0" ry="10.0"/>
  
      <ellipse cx="220.0" cy="50.0" style="fill:#FF2222" rx="10.0" ry="10.0"/>
  
      <ellipse cx="250.0" cy="50.0" style="fill:#FF2222" rx="10.0" ry="10.0"/>
  
    <rect x="160" y="100" style="fill:#FFFFFF" width="120" height="60"/>
  
      <ellipse cx="190.0" cy="130.0" style="fill:#FF2222" rx="10.0" ry="10.0"/>
  
      <ellipse cx="220.0" cy="130.0" style="fill:#FF2222" rx="10.0" ry="10.0"/>
  
      <ellipse cx="250.0" cy="130.0" style="fill:#FF2222" rx="10.0" ry="10.0"/>
  
    <rect x="160" y="180" style="fill:#FFFFFF" width="120" height="60"/>
  
      <ellipse cx="190.0" cy="210.0" style="fill:#FF2222" rx="10.0" ry="10.0"/>
  
      <ellipse cx="220.0" cy="210.0" style="fill:#FF2222" rx="10.0" ry="10.0"/>
  
      <ellipse cx="250.0" cy="210.0" style="fill:#FF2222" rx="10.0" ry="10.0"/>
  
    <rect x="300" y="20" style="fill:#FFFFFF" width="120" height="60"/>
  
      <ellipse cx="330.0" cy="50.0" style="fill:#FF2222" rx="10.0" ry="10.0"/>
  
      <ellipse cx="360.0" cy="50.0" style="fill:#FF2222" rx="10.0" ry="10.0"/>
  
      <ellipse cx="390.0" cy="50.0" style="fill:#FF2222" rx="10.0" ry="10.0"/>
  
    <rect x="300" y="100" style="fill:#FFFFFF" width="120" height="60"/>
  
      <ellipse cx="330.0" cy="130.0" style="fill:#FF2222" rx="10.0" ry="10.0"/>
  
      <ellipse cx="360.0" cy="130.0" style="fill:#FF2222" rx="10.0" ry="10.0"/>
  
      <ellipse cx="390.0" cy="130.0" style="fill:#FF2222" rx="10.0" ry="10.0"/>
  
    <rect x="300" y="180" style="fill:#FFFFFF" width="120" height="60"/>
  
      <ellipse cx="330.0" cy="210.0" style="fill:#FF2222" rx="10.0" ry="10.0"/>
  
      <ellipse cx="360.0" cy="210.0" style="fill:#FF2222" rx="10.0" ry="10.0"/>
  
      <ellipse cx="390.0" cy="210.0" style="fill:#FF2222" rx="10.0" ry="10.0"/>
  
    <rect x="440" y="20" style="fill:#FFFFFF" width="120" height="60"/>
  
      <ellipse cx="470.0" cy="50.0" style="fill:#FF2222" rx="10.0" ry="10.0"/>
  
      <ellipse cx="500.0" cy="50.0" style="fill:#FF2222" rx="10.0" ry="10.0"/>
  
      <ellipse cx="530.0" cy="50.0" style="fill:#FF2222" rx="10.0" ry="10.0"/>
  
    <rect x="440" y="100" style="fill:#FFFFFF" width="120" height="60"/>
  
      <ellipse cx="470.0" cy="130.0" style="fill:#FF2222" rx="10.0" ry="10.0"/>
  
      <ellipse cx="500.0" cy="130.0" style="fill:#FF2222" rx="10.0" ry="10.0"/>
  
      <ellipse cx="530.0" cy="130.0" style="fill:#FF2222" rx="10.0" ry="10.0"/>
  
    <rect x="440" y="180" style="fill:#FFFFFF" width="120" height="60"/>
  
      <ellipse cx="470.0" cy="210.0" style="fill:#FF2222" rx="10.0" ry="10.0"/>
  
      <ellipse cx="500.0" cy="210.0" style="fill:#FF2222" rx="10.0" ry="10.0"/>
  
      <ellipse cx="530.0" cy="210.0" style="fill:#FF2222" rx="10.0" ry="10.0"/>
  

</svg>

