
<svg xmlns="http://www.w3.org/2000/svg"
  xmlns:xlink="http://www.w3.org/1999/xlink"
  width="580" height="260">
<pattern id="diagonalHatch" width="10" height="10" patternTransform="rotate(45 0 0)" patternUnits="userSpaceOnUse">
  <line x1="0" y1="0" x2="0" y2="10" style="stroke:black; stroke-width:1" />
</pattern>

  <rect x="0" y="0" style="fill:#FFBBBB" width="580" height="260"/>

    <rect x="20" y="20" style="fill:#FFFFFF" width="120" height="60"/>
  
      <rect x="40.0" y="40.0" style="fill:#FF6666" width="20" height="20" stroke-width="5"/>
  
      <rect x="70.0" y="40.0" style="fill:#FF6666" width="20" height="20" stroke-width="5"/>
  
      <rect x="100.0" y="40.0" style="fill:#FF6666" width="20" height="20" stroke-width="5"/>
  
    <rect x="20" y="100" style="fill:#FFFFFF" width="120" height="60"/>
  <polygon points="80.0 120.0, 90.0 140.0, 70.0 140.0" style="fill:#6666FF" stroke-width="5"/>
  
    <rect x="20" y="180" style="fill:#FFFFFF" width="120" height="60"/>
  
      <ellipse cx="50.0" cy="210.0" style="fill:#FF6666" rx="10.0" ry="10.0" stroke-width="5"/>
  
      <ellipse cx="80.0" cy="210.0" style="fill:#FF6666" rx="10.0" ry="10.0" stroke-width="5"/>
  
      <ellipse cx="110.0" cy="210.0" style="fill:#FF6666" rx="10.0" ry="10.0" stroke-width="5"/>
  
    <rect x="160" y="20" style="fill:#FFFFFF" width="120" height="60"/>
  
      <rect x="180.0" y="40.0" style="fill:#6666FF" width="20" height="20" stroke-width="5"/>
  
      <rect x="210.0" y="40.0" style="fill:#6666FF" width="20" height="20" stroke-width="5"/>
  
      <rect x="240.0" y="40.0" style="fill:#6666FF" width="20" height="20" stroke-width="5"/>
  
    <rect x="160" y="100" style="fill:#FFFFFF" width="120" height="60"/>
  
      <ellipse cx="220.0" cy="130.0" style="fill:#FF6666" rx="10.0" ry="10.0" stroke-width="5"/>
  
    <rect x="160" y="180" style="fill:#FFFFFF" width="120" height="60"/>
  
      <rect x="210.0" y="200.0" style="fill:#66FF66" width="20" height="20" stroke-width="5"/>
  
    <rect x="300" y="20" style="fill:#FFFFFF" width="120" height="60"/>
  
      <ellipse cx="340.0" cy="50.0" style="fill:#FF6666" rx="10.0" ry="10.0" stroke-width="5"/>
  
      <ellipse cx="380.0" cy="50.0" style="fill:#FF6666" rx="10.0" ry="10.0" stroke-width="5"/>
  
    <rect x="300" y="100" style="fill:#FFFFFF" width="120" height="60"/>
  <polygon points="360.0 120.0, 370.0 140.0, 350.0 140.0" style="fill:#FF6666" stroke-width="5"/>
  
    <rect x="300" y="180" style="fill:#FFFFFF" width="120" height="60"/>
  <polygon points="340.0 200.0, 350.0 220.0, 330.0 220.0" style="fill:#FF6666" stroke-width="5"/>
  <polygon points="380.0 200.0, 390.0 220.0, 370.0 220.0" style="fill:#FF6666" stroke-width="5"/>
  
    <rect x="440" y="20" style="fill:#FFFFFF" width="120" height="60"/>
  
      <ellipse cx="480.0" cy="50.0" style="fill:#66FF66" rx="10.0" ry="10.0" stroke-width="5"/>
  
      <ellipse cx="520.0" cy="50.0" style="fill:#66FF66" rx="10.0" ry="10.0" stroke-width="5"/>
  
    <rect x="440" y="100" style="fill:#FFFFFF" width="120" height="60"/>
  
      <ellipse cx="470.0" cy="130.0" style="fill:#FF6666" rx="10.0" ry="10.0" stroke-width="5"/>
  
      <ellipse cx="500.0" cy="130.0" style="fill:#FF6666" rx="10.0" ry="10.0" stroke-width="5"/>
  
      <ellipse cx="530.0" cy="130.0" style="fill:#FF6666" rx="10.0" ry="10.0" stroke-width="5"/>
  
    <rect x="440" y="180" style="fill:#FFFFFF" width="120" height="60"/>
  <polygon points="480.0 200.0, 490.0 220.0, 470.0 220.0" style="fill:#FF6666" stroke-width="5"/>
  <polygon points="520.0 200.0, 530.0 220.0, 510.0 220.0" style="fill:#FF6666" stroke-width="5"/>
  

</svg>

