
<svg xmlns="http://www.w3.org/2000/svg"
  xmlns:xlink="http://www.w3.org/1999/xlink"
  width="580" height="260">

<pattern id="hatch66c2a5" width="4" height="4" patternTransform="rotate(45 0 0)" patternUnits="userSpaceOnUse">
<ellipse cx="2" cy="2" rx="1.3" ry="1.3" fill="#66c2a5"/>
</pattern>

<pattern id="hatchfc8d62" width="4" height="4" patternTransform="rotate(45 0 0)" patternUnits="userSpaceOnUse">
<ellipse cx="2" cy="2" rx="1.3" ry="1.3" fill="#fc8d62"/>
</pattern>

<pattern id="hatch8da0cb" width="4" height="4" patternTransform="rotate(45 0 0)" patternUnits="userSpaceOnUse">
<ellipse cx="2" cy="2" rx="1.3" ry="1.3" fill="#8da0cb"/>
</pattern>


  <rect x="0" y="0" style="fill:#e8efed" width="580" height="260"/>

    <rect x="20" y="20" rx="5" ry="5" style="fill:#FFFFFF" width="120" height="60"/>
  
      <ellipse cx="50.0" cy="50.0" rx="10.0" ry="10.0" stroke="#66c2a5" stroke-width="5"
  
      fill="#66c2a5"
    />
  
      <ellipse cx="80.0" cy="50.0" rx="10.0" ry="10.0" stroke="#66c2a5" stroke-width="5"
  
      fill="#66c2a5"
    />
  
      <ellipse cx="110.0" cy="50.0" rx="10.0" ry="10.0" stroke="#66c2a5" stroke-width="5"
  
      fill="#66c2a5"
    />
  
    <rect x="20" y="100" rx="5" ry="5" style="fill:#FFFFFF" width="120" height="60"/>
  
      <ellipse cx="50.0" cy="130.0" rx="10.0" ry="10.0" stroke="#8da0cb" stroke-width="5"
  
    fill="url(#hatch8da0cb)" 
    />
  
      <ellipse cx="80.0" cy="130.0" rx="10.0" ry="10.0" stroke="#8da0cb" stroke-width="5"
  
    fill="url(#hatch8da0cb)" 
    />
  
      <ellipse cx="110.0" cy="130.0" rx="10.0" ry="10.0" stroke="#8da0cb" stroke-width="5"
  
    fill="url(#hatch8da0cb)" 
    />
  
    <rect x="20" y="180" rx="5" ry="5" style="fill:#FFFFFF" width="120" height="60"/>
  <polygon points="80.0 200.0, 90.0 220.0, 70.0 220.0" stroke="#66c2a5" stroke-width="5"
  
      fill="transparent"
    />
  
    <rect x="160" y="20" rx="5" ry="5" style="fill:#FFFFFF" width="120" height="60"/>
  <polygon points="190.0 40.0, 200.0 60.0, 180.0 60.0" stroke="#66c2a5" stroke-width="5"
  
      fill="#66c2a5"
    />
  <polygon points="220.0 40.0, 230.0 60.0, 210.0 60.0" stroke="#66c2a5" stroke-width="5"
  
      fill="#66c2a5"
    />
  <polygon points="250.0 40.0, 260.0 60.0, 240.0 60.0" stroke="#66c2a5" stroke-width="5"
  
      fill="#66c2a5"
    />
  
    <rect x="160" y="100" rx="5" ry="5" style="fill:#FFFFFF" width="120" height="60"/>
  
      <rect x="180.0" y="120.0" width="20" height="20" stroke="#fc8d62" stroke-width="5"
  
      fill="transparent"
    />
  
      <rect x="210.0" y="120.0" width="20" height="20" stroke="#fc8d62" stroke-width="5"
  
      fill="transparent"
    />
  
      <rect x="240.0" y="120.0" width="20" height="20" stroke="#fc8d62" stroke-width="5"
  
      fill="transparent"
    />
  
    <rect x="160" y="180" rx="5" ry="5" style="fill:#FFFFFF" width="120" height="60"/>
  
      <rect x="180.0" y="200.0" width="20" height="20" stroke="#66c2a5" stroke-width="5"
  
      fill="#66c2a5"
    />
  
      <rect x="210.0" y="200.0" width="20" height="20" stroke="#66c2a5" stroke-width="5"
  
      fill="#66c2a5"
    />
  
      <rect x="240.0" y="200.0" width="20" height="20" stroke="#66c2a5" stroke-width="5"
  
      fill="#66c2a5"
    />
  
    <rect x="300" y="20" rx="5" ry="5" style="fill:#FFFFFF" width="120" height="60"/>
  
      <ellipse cx="340.0" cy="50.0" rx="10.0" ry="10.0" stroke="#66c2a5" stroke-width="5"
  
      fill="transparent"
    />
  
      <ellipse cx="380.0" cy="50.0" rx="10.0" ry="10.0" stroke="#66c2a5" stroke-width="5"
  
      fill="transparent"
    />
  
    <rect x="300" y="100" rx="5" ry="5" style="fill:#FFFFFF" width="120" height="60"/>
  <polygon points="360.0 120.0, 370.0 140.0, 350.0 140.0" stroke="#8da0cb" stroke-width="5"
  
      fill="#8da0cb"
    />
  
    <rect x="300" y="180" rx="5" ry="5" style="fill:#FFFFFF" width="120" height="60"/>
  <polygon points="360.0 200.0, 370.0 220.0, 350.0 220.0" stroke="#fc8d62" stroke-width="5"
  
      fill="#fc8d62"
    />
  
    <rect x="440" y="20" rx="5" ry="5" style="fill:#FFFFFF" width="120" height="60"/>
  
      <rect x="490.0" y="40.0" width="20" height="20" stroke="#66c2a5" stroke-width="5"
  
    fill="url(#hatch66c2a5)" 
    />
  
    <rect x="440" y="100" rx="5" ry="5" style="fill:#FFFFFF" width="120" height="60"/>
  
      <ellipse cx="500.0" cy="130.0" rx="10.0" ry="10.0" stroke="#8da0cb" stroke-width="5"
  
      fill="#8da0cb"
    />
  
    <rect x="440" y="180" rx="5" ry="5" style="fill:#FFFFFF" width="120" height="60"/>
  
      <rect x="460.0" y="200.0" width="20" height="20" stroke="#66c2a5" stroke-width="5"
  
      fill="transparent"
    />
  
      <rect x="490.0" y="200.0" width="20" height="20" stroke="#66c2a5" stroke-width="5"
  
      fill="transparent"
    />
  
      <rect x="520.0" y="200.0" width="20" height="20" stroke="#66c2a5" stroke-width="5"
  
      fill="transparent"
    />
  

</svg>

