
<svg xmlns="http://www.w3.org/2000/svg"
  xmlns:xlink="http://www.w3.org/1999/xlink"
  width="580" height="260">
<pattern id="diagonalHatch" width="10" height="10" patternTransform="rotate(45 0 0)" patternUnits="userSpaceOnUse">
  <line x1="0" y1="0" x2="0" y2="10" style="stroke:black; stroke-width:1" />
</pattern>

  <rect x="0" y="0" style="fill:#FFBBBB" width="580" height="260"/>

    <rect x="20" y="20" style="fill:#FFFFFF" width="120" height="60"/>
  <polygon points="50.0 40.0, 60.0 60.0, 40.0 60.0" style="fill:#FF2222"/>
  <polygon points="80.0 40.0, 90.0 60.0, 70.0 60.0" style="fill:#FF2222"/>
  <polygon points="110.0 40.0, 120.0 60.0, 100.0 60.0" style="fill:#FF2222"/>
  
    <rect x="20" y="100" style="fill:#FFFFFF" width="120" height="60"/>
  <polygon points="50.0 120.0, 60.0 140.0, 40.0 140.0" style="fill:#FF2222"/>
  <polygon points="80.0 120.0, 90.0 140.0, 70.0 140.0" style="fill:#FF2222"/>
  <polygon points="110.0 120.0, 120.0 140.0, 100.0 140.0" style="fill:#FF2222"/>
  
    <rect x="20" y="180" style="fill:#FFFFFF" width="120" height="60"/>
  <polygon points="50.0 200.0, 60.0 220.0, 40.0 220.0" style="fill:#FF2222"/>
  <polygon points="80.0 200.0, 90.0 220.0, 70.0 220.0" style="fill:#FF2222"/>
  <polygon points="110.0 200.0, 120.0 220.0, 100.0 220.0" style="fill:#FF2222"/>
  
    <rect x="160" y="20" style="fill:#FFFFFF" width="120" height="60"/>
  <polygon points="190.0 40.0, 200.0 60.0, 180.0 60.0" style="fill:#FF2222"/>
  <polygon points="220.0 40.0, 230.0 60.0, 210.0 60.0" style="fill:#FF2222"/>
  <polygon points="250.0 40.0, 260.0 60.0, 240.0 60.0" style="fill:#FF2222"/>
  
    <rect x="160" y="100" style="fill:#FFFFFF" width="120" height="60"/>
  <polygon points="190.0 120.0, 200.0 140.0, 180.0 140.0" style="fill:#FF2222"/>
  <polygon points="220.0 120.0, 230.0 140.0, 210.0 140.0" style="fill:#FF2222"/>
  <polygon points="250.0 120.0, 260.0 140.0, 240.0 140.0" style="fill:#FF2222"/>
  
    <rect x="160" y="180" style="fill:#FFFFFF" width="120" height="60"/>
  <polygon points="190.0 200.0, 200.0 220.0, 180.0 220.0" style="fill:#FF2222"/>
  <polygon points="220.0 200.0, 230.0 220.0, 210.0 220.0" style="fill:#FF2222"/>
  <polygon points="250.0 200.0, 260.0 220.0, 240.0 220.0" style="fill:#FF2222"/>
  
    <rect x="300" y="20" style="fill:#FFFFFF" width="120" height="60"/>
  <polygon points="330.0 40.0, 340.0 60.0, 320.0 60.0" style="fill:#FF2222"/>
  <polygon points="360.0 40.0, 370.0 60.0, 350.0 60.0" style="fill:#FF2222"/>
  <polygon points="390.0 40.0, 400.0 60.0, 380.0 60.0" style="fill:#FF2222"/>
  
    <rect x="300" y="100" style="fill:#FFFFFF" width="120" height="60"/>
  <polygon points="330.0 120.0, 340.0 140.0, 320.0 140.0" style="fill:#FF2222"/>
  <polygon points="360.0 120.0, 370.0 140.0, 350.0 140.0" style="fill:#FF2222"/>
  <polygon points="390.0 120.0, 400.0 140.0, 380.0 140.0" style="fill:#FF2222"/>
  
    <rect x="300" y="180" style="fill:#FFFFFF" width="120" height="60"/>
  <polygon points="330.0 200.0, 340.0 220.0, 320.0 220.0" style="fill:#FF2222"/>
  <polygon points="360.0 200.0, 370.0 220.0, 350.0 220.0" style="fill:#FF2222"/>
  <polygon points="390.0 200.0, 400.0 220.0, 380.0 220.0" style="fill:#FF2222"/>
  
    <rect x="440" y="20" style="fill:#FFFFFF" width="120" height="60"/>
  <polygon points="470.0 40.0, 480.0 60.0, 460.0 60.0" style="fill:#FF2222"/>
  <polygon points="500.0 40.0, 510.0 60.0, 490.0 60.0" style="fill:#FF2222"/>
  <polygon points="530.0 40.0, 540.0 60.0, 520.0 60.0" style="fill:#FF2222"/>
  
    <rect x="440" y="100" style="fill:#FFFFFF" width="120" height="60"/>
  <polygon points="470.0 120.0, 480.0 140.0, 460.0 140.0" style="fill:#FF2222"/>
  <polygon points="500.0 120.0, 510.0 140.0, 490.0 140.0" style="fill:#FF2222"/>
  <polygon points="530.0 120.0, 540.0 140.0, 520.0 140.0" style="fill:#FF2222"/>
  
    <rect x="440" y="180" style="fill:#FFFFFF" width="120" height="60"/>
  <polygon points="470.0 200.0, 480.0 220.0, 460.0 220.0" style="fill:#FF2222"/>
  <polygon points="500.0 200.0, 510.0 220.0, 490.0 220.0" style="fill:#FF2222"/>
  <polygon points="530.0 200.0, 540.0 220.0, 520.0 220.0" style="fill:#FF2222"/>
  

</svg>

